# xmcd
#
# Track frame offsets:
#  150
#  10841
#  26365
#  38574
#  53279
#  69414
#  78208
#  92182
#  106831
#
# Disc length: 1573 seconds
#
# Revision: 0
# Processed by: cddbd v1.5.1PL0 Copyright (c) Steve Scherf et al.
# Submitted via: Collectorz.com_Music_Collector 6.9
#
DISCID=56062309
DTITLE=Delmark Goldfarb - Up To My Neck
DYEAR=2004
DGENRE=Blues
TTITLE0=Shoot The Angels Down
TTITLE1=I Need Your Love
TTITLE2=Portable Man
TTITLE3=Got Something Good With Her
TTITLE4=Hungry For My Baby's Love
TTITLE5=Don't Bring Me No Flowers
TTITLE6=Somebody's Got The Blues
TTITLE7=If You Lose Your Money
TTITLE8=Mr. Jailer Man
EXTD=
EXTT0=
EXTT1=
EXTT2=
EXTT3=
EXTT4=
EXTT5=
EXTT6=
EXTT7=
EXTT8=
PLAYORDER=
